<svg xmlns="http://www.w3.org/2000/svg" viewBox="0 0 120 120" width="100%" height="100%">
  <defs>
    <mask id="ghost-mask">
      <rect width="120" height="120" fill="white" />
      
      <path d="M 55 45 L 85 45 L 105 65 L 105 104 A 8 8 0 0 1 97 112 L 63 112 A 8 8 0 0 1 55 104 Z" 
            fill="black" stroke="black" stroke-width="14" stroke-linejoin="round" />
            
      <circle cx="36" cy="38" r="5" fill="black" />
      <circle cx="52" cy="38" r="5" fill="black" />
    </mask>
  </defs>

  <path d="M 50 10 
           C 10 10 10 40 10 65
           C 10 85 0 95 8 100
           C 20 105 30 85 45 85
           C 55 85 60 100 75 100
           C 85 100 90 85 90 75
           V 40
           C 90 10 50 10 50 10 Z" 
        fill="#1e293b" 
        mask="url(#ghost-mask)" />
        
  <path d="M 55 45 
           L 85 45 
           L 105 65 
           L 105 104 
           A 8 8 0 0 1 97 112 
           L 63 112 
           A 8 8 0 0 1 55 104 
           Z" 
        fill="none" 
        stroke="#1e293b" 
        stroke-width="8" 
        stroke-linejoin="round" />
        
  <path d="M 85 45 
           V 61 
           A 4 4 0 0 0 89 65 
           H 105" 
        fill="none" 
        stroke="#1e293b" 
        stroke-width="8" 
        stroke-linejoin="round" 
        stroke-linecap="round"/>

  <line x1="69" y1="80" x2="91" y2="80" stroke="#1e293b" stroke-width="6" stroke-linecap="round" />
  <line x1="69" y1="94" x2="83" y2="94" stroke="#1e293b" stroke-width="6" stroke-linecap="round" />
</svg>
